<svg id="Capa_1" enable-background="new 0 0 512 512" height="512" viewBox="0 0 512 512" width="512" xmlns="http://www.w3.org/2000/svg"><path d="m342.812 323.884-30.298-4.215c-3.754-.522-6.949-3.071-8.183-6.655-1.597-4.639-3.471-9.149-5.603-13.51-1.667-3.411-1.217-7.479 1.072-10.507l18.449-24.412c2.919-3.862 2.543-9.285-.88-12.709l-26.13-26.13c-3.423-3.423-8.846-3.799-12.709-.88l-24.412 18.449c-3.029 2.289-7.096 2.739-10.507 1.072-4.361-2.131-8.871-4.006-13.51-5.603-3.583-1.233-6.132-4.429-6.655-8.183l-4.215-30.298c-.667-4.795-4.767-8.364-9.609-8.364h-36.952c-4.841 0-8.942 3.569-9.609 8.364l-4.215 30.298c-.522 3.754-3.071 6.949-6.655 8.183-4.639 1.597-9.149 3.471-13.51 5.603-3.411 1.667-7.479 1.217-10.507-1.072l-24.412-18.449c-3.862-2.919-9.286-2.543-12.709.88l-26.13 26.13c-3.423 3.423-3.799 8.846-.88 12.709l18.449 24.412c2.289 3.029 2.739 7.096 1.072 10.507-2.131 4.361-4.006 8.871-5.603 13.51-1.233 3.583-4.429 6.132-8.183 6.655l-30.298 4.215c-4.795.667-8.364 4.767-8.364 9.609v36.953c0 4.841 3.569 8.941 8.364 9.609l30.298 4.215c3.754.522 6.949 3.071 8.183 6.655 1.597 4.639 3.471 9.149 5.603 13.51 1.667 3.411 1.217 7.479-1.072 10.507l-18.449 24.412c-2.919 3.862-2.543 9.285.88 12.709l26.13 26.13c3.423 3.423 8.846 3.799 12.709.88l24.412-18.449c3.029-2.289 7.096-2.739 10.507-1.072 4.361 2.132 8.871 4.006 13.51 5.603 3.583 1.233 6.132 4.429 6.655 8.183l4.215 30.298c.667 4.795 4.767 8.364 9.609 8.364h36.954c4.841 0 8.941-3.569 9.609-8.364l4.215-30.298c.522-3.754 3.071-6.949 6.655-8.183 4.639-1.597 9.149-3.471 13.51-5.603 3.411-1.667 7.479-1.217 10.507 1.072l24.412 18.449c3.862 2.919 9.286 2.543 12.709-.88l26.13-26.13c3.423-3.423 3.799-8.846.88-12.709l-18.449-24.412c-2.289-3.029-2.739-7.096-1.072-10.507 2.131-4.361 4.006-8.871 5.603-13.51 1.233-3.583 4.429-6.132 8.183-6.655l30.298-4.215c4.795-.667 8.364-4.767 8.364-9.609v-36.953c-.001-4.841-3.571-8.941-8.366-9.609zm-151.666 96.098c-37.562 0-68.012-30.45-68.012-68.012s30.45-68.012 68.012-68.012 68.012 30.45 68.012 68.012-30.45 68.012-68.012 68.012z" fill="#8c9ba6"/><path d="m342.812 323.884-26.347-3.666v32.191c0 4.841-3.569 8.941-8.364 9.609l-30.298 4.215c-3.754.522-6.949 3.071-8.183 6.654-1.597 4.639-3.471 9.149-5.603 13.51-1.667 3.411-1.217 7.479 1.072 10.507l18.449 24.412c2.919 3.862 2.543 9.285-.88 12.709l-26.13 26.13c-.451.451-.939.846-1.452 1.191l23.455 17.725c3.862 2.919 9.286 2.543 12.709-.88l26.13-26.13c3.423-3.423 3.799-8.846.88-12.709l-18.449-24.412c-2.289-3.029-2.739-7.096-1.072-10.507 2.132-4.361 4.006-8.871 5.603-13.51 1.233-3.583 4.429-6.132 8.183-6.655l30.298-4.215c4.795-.667 8.364-4.767 8.364-9.609v-36.953c0-4.839-3.57-8.939-8.365-9.607z" fill="#7c8b96"/><path d="m393.346 122.391-17.082-10.128c-1.363-.808-2.143-2.327-1.996-3.905.222-2.375.345-4.779.345-7.212 0-2.215-.101-4.405-.285-6.573-.133-1.57.67-3.071 2.032-3.863l17.162-9.98c2.716-1.58 3.853-4.92 2.662-7.828l-9.084-22.199c-1.19-2.908-4.342-4.494-7.387-3.716l-19.243 4.918c-1.521.389-3.144-.11-4.148-1.316-2.956-3.552-6.216-6.84-9.743-9.826-1.198-1.014-1.683-2.641-1.281-4.159l5.081-19.201c.804-3.038-.755-6.203-3.653-7.418l-22.121-9.273c-2.898-1.215-6.248-.107-7.851 2.596l-10.128 17.082c-.808 1.363-2.327 2.143-3.905 1.996-2.375-.222-4.779-.345-7.212-.345-2.215 0-4.405.101-6.573.285-1.57.133-3.071-.67-3.863-2.032l-9.98-17.162c-1.58-2.716-4.92-3.853-7.829-2.662l-22.199 9.085c-2.908 1.19-4.494 4.342-3.716 7.387l4.918 19.243c.389 1.521-.11 3.144-1.316 4.148-3.552 2.956-6.84 6.216-9.826 9.743-1.014 1.198-2.641 1.683-4.159 1.281l-19.201-5.081c-3.038-.804-6.203.755-7.418 3.653l-9.273 22.121c-1.215 2.898-.107 6.248 2.596 7.851l17.082 10.128c1.363.808 2.143 2.327 1.996 3.905-.222 2.375-.345 4.779-.345 7.212 0 2.215.101 4.405.285 6.573.133 1.57-.67 3.071-2.032 3.863l-17.162 9.98c-2.716 1.58-3.853 4.92-2.662 7.828l9.085 22.199c1.19 2.908 4.342 4.494 7.387 3.716l19.243-4.918c1.521-.389 3.144.11 4.148 1.316 2.956 3.552 6.216 6.84 9.743 9.826 1.198 1.014 1.683 2.641 1.281 4.159l-5.081 19.201c-.804 3.038.755 6.203 3.653 7.418l22.121 9.273c2.898 1.215 6.248.107 7.851-2.596l10.128-17.082c.808-1.363 2.327-2.143 3.905-1.996 2.375.222 4.779.345 7.212.345 2.215 0 4.405-.101 6.573-.285 1.57-.133 3.071.67 3.863 2.032l9.98 17.162c1.58 2.716 4.92 3.853 7.828 2.662l22.199-9.085c2.908-1.19 4.494-4.342 3.716-7.387l-4.918-19.243c-.389-1.521.11-3.144 1.316-4.148 3.552-2.956 6.84-6.216 9.826-9.743 1.014-1.198 2.641-1.683 4.159-1.281l19.201 5.081c3.038.804 6.203-.755 7.418-3.653l9.273-22.121c1.215-2.898.107-6.248-2.596-7.851zm-97.836 8.452c-16.402 0-29.698-13.296-29.698-29.698s13.296-29.698 29.698-29.698 29.698 13.296 29.698 29.698-13.297 29.698-29.698 29.698z" fill="#d6e4ea"/><path d="m393.346 122.391-14.476-8.583-7.334 17.496c-1.215 2.898-4.38 4.457-7.418 3.653l-19.201-5.081c-1.517-.402-3.144.083-4.159 1.281-2.986 3.526-6.273 6.787-9.826 9.743-1.206 1.004-1.705 2.627-1.316 4.148l4.918 19.243c.778 3.045-.807 6.197-3.716 7.387l-22.199 9.085c-1.086.444-2.232.563-3.325.398.247.248.468.525.649.836l9.98 17.162c1.58 2.716 4.92 3.853 7.828 2.662l22.199-9.085c2.908-1.19 4.494-4.342 3.716-7.387l-4.918-19.243c-.389-1.521.11-3.144 1.316-4.148 3.552-2.956 6.84-6.216 9.826-9.743 1.014-1.198 2.641-1.683 4.159-1.281l19.201 5.081c3.038.804 6.203-.755 7.418-3.653l9.273-22.121c1.216-2.897.108-6.248-2.595-7.85z" fill="#b6c1cc"/><path d="m273.42 1.273c-.836-.626-1.805-1.045-2.83-1.201.746.75 1.758 1.188 2.83 1.201z" fill="#bfbfbf"/><path d="m478.219 274.205-10.184-6.207c-1.543-.94-2.408-2.672-2.249-4.472.137-1.555.21-3.129.21-4.72 0-.987-.028-1.968-.081-2.942-.098-1.801.825-3.499 2.395-4.387l10.378-5.867c1.878-1.062 2.685-3.345 1.893-5.351l-6.051-15.313c-.793-2.006-2.943-3.121-5.039-2.612l-11.589 2.812c-1.751.425-3.584-.184-4.744-1.562-1.649-1.959-3.433-3.799-5.338-5.509-1.342-1.205-1.892-3.059-1.409-4.796l3.192-11.496c.577-2.078-.466-4.264-2.446-5.122l-15.107-6.549c-1.979-.858-4.288-.126-5.41 1.716l-6.207 10.184c-.94 1.543-2.672 2.408-4.472 2.249-1.555-.137-3.129-.21-4.72-.21-.987 0-1.968.028-2.942.08-1.801.098-3.499-.825-4.387-2.395l-5.867-10.378c-1.062-1.878-3.345-2.685-5.351-1.893l-15.313 6.051c-2.006.793-3.121 2.943-2.612 5.039l2.812 11.589c.425 1.751-.184 3.584-1.562 4.744-1.959 1.649-3.799 3.433-5.509 5.338-1.205 1.342-3.059 1.892-4.796 1.409l-11.496-3.192c-2.078-.577-4.264.466-5.122 2.446l-6.549 15.107c-.858 1.979-.126 4.288 1.716 5.41l10.184 6.207c1.543.94 2.408 2.672 2.249 4.472-.137 1.555-.21 3.129-.21 4.72 0 .987.027 1.968.08 2.942.098 1.801-.825 3.499-2.395 4.387l-10.378 5.867c-1.878 1.062-2.685 3.345-1.893 5.351l6.051 15.313c.793 2.006 2.943 3.121 5.039 2.612l11.589-2.812c1.751-.425 3.584.184 4.744 1.562 1.649 1.959 3.433 3.799 5.338 5.509 1.342 1.205 1.892 3.059 1.409 4.796l-3.192 11.496c-.577 2.078.466 4.264 2.446 5.122l15.107 6.549c1.979.858 4.288.126 5.41-1.716l6.207-10.184c.94-1.543 2.672-2.408 4.472-2.249 1.555.137 3.129.21 4.72.21.987 0 1.968-.027 2.942-.081 1.801-.098 3.499.825 4.387 2.395l5.867 10.378c1.062 1.878 3.345 2.685 5.351 1.893l15.313-6.051c2.006-.793 3.121-2.943 2.612-5.039l-2.812-11.589c-.425-1.751.184-3.584 1.562-4.744 1.959-1.649 3.799-3.433 5.509-5.338 1.205-1.342 3.059-1.892 4.796-1.409l11.496 3.192c2.078.577 4.264-.466 5.122-2.446l6.549-15.107c.86-1.977.127-4.286-1.715-5.409zm-66.978 19.463c-19.254 0-34.862-15.608-34.862-34.862s15.608-34.862 34.862-34.862 34.862 15.608 34.862 34.862-15.609 34.862-34.862 34.862z" fill="#d6e4ea"/><path d="m478.219 274.205-8.022-4.889-6.509 15.013c-.858 1.979-3.044 3.023-5.122 2.446l-11.496-3.192c-1.737-.482-3.591.067-4.796 1.409-1.71 1.904-3.55 3.689-5.509 5.338-1.378 1.16-1.987 2.994-1.562 4.744l2.812 11.589c.509 2.096-.606 4.247-2.612 5.039l-15.313 6.051c-.129.051-.262.077-.394.115l4.74 8.385c1.062 1.878 3.345 2.685 5.351 1.893l15.313-6.051c2.006-.793 3.121-2.943 2.612-5.039l-2.812-11.589c-.425-1.751.184-3.584 1.562-4.744 1.959-1.649 3.799-3.433 5.509-5.338 1.205-1.342 3.059-1.892 4.796-1.409l11.496 3.192c2.078.577 4.264-.466 5.122-2.446l6.549-15.107c.86-1.978.127-4.287-1.715-5.41z" fill="#b6c1cc"/></svg>